<svg width="110" height="87" viewBox="0 0 110 87" fill="none" xmlns="http://www.w3.org/2000/svg">
<path d="M85.9705 56.2735C85.3567 51.3269 82.9816 46.767 79.2802 43.4287C75.5788 40.0903 70.7987 38.1968 65.8153 38.095C63.512 38.095 61.232 38.5563 59.1098 39.4517C56.9474 35.7352 53.8644 32.6382 50.1578 30.4591C46.4512 28.2799 42.2458 27.092 37.9469 27.0097C33.0578 26.8552 28.2912 28.5552 24.6033 31.7686C20.9154 34.982 18.579 39.4712 18.063 44.3354C15.7369 44.4557 13.4606 45.0545 11.3764 46.0944C9.29217 47.1342 7.44483 48.5927 5.94977 50.3788C4.45472 52.1649 3.3441 54.24 2.68732 56.4747C2.03054 58.7094 1.84172 61.0556 2.13265 63.3666C2.74023 68.5466 5.20241 73.3315 9.06416 76.837C12.9259 80.3425 17.9261 82.3315 23.1406 82.4365H83.8C85.5265 82.4725 87.2405 82.136 88.8252 81.4498C90.41 80.7636 91.8282 79.7439 92.9832 78.4601C94.1382 77.1763 95.003 75.6586 95.5185 74.0105C96.034 72.3623 96.1882 70.6224 95.9706 68.9092C95.6219 66.0888 94.5047 63.4185 92.7411 61.1901C90.9775 58.9617 88.6353 57.2609 85.9705 56.2735Z" fill="#323F4C"/>
<path d="M29.9626 28.4452C26.9212 29.9458 24.2305 32.0713 22.0665 34.6828C19.9026 37.2943 18.3139 40.333 17.4044 43.6003C13.3061 44.5479 9.58226 46.6931 6.70665 49.7631C3.02774 46.7535 0.664558 42.4303 0.117461 37.7088C-0.150339 35.5926 0.0410481 33.4435 0.678611 31.408C1.31617 29.3724 2.38494 27.4981 3.8121 25.9128C5.23926 24.3275 6.9913 23.0684 8.94891 22.2211C10.9065 21.3739 13.0237 20.9585 15.1563 21.0033C18.0305 21.0212 20.8617 21.702 23.4298 22.9927C25.9978 24.2835 28.2334 26.1494 29.9626 28.4452V28.4452Z" fill="#C0C0C0"/>
<circle cx="58.9655" cy="37.669" r="0.965517" fill="#969696"/>
<circle cx="62.8276" cy="35.9311" r="0.965517" fill="#969696"/>
<circle cx="66.8828" cy="34.9655" r="0.965517" fill="#969696"/>
<circle cx="70.9379" cy="35.9311" r="0.965517" fill="#969696"/>
<circle cx="74.2206" cy="38.2482" r="0.965517" fill="#969696"/>
<circle cx="76.731" cy="40.9517" r="0.965517" fill="#969696"/>
<circle cx="78.0827" cy="44.6207" r="0.965517" fill="#969696"/>
<circle cx="78.662" cy="48.4827" r="0.965517" fill="#969696"/>
<circle cx="77.6966" cy="52.3448" r="0.965517" fill="#969696"/>
<circle cx="76.1517" cy="55.4345" r="0.965517" fill="#969696"/>
<circle cx="77.1172" cy="59.1035" r="0.965517" fill="#969696"/>
<circle cx="80.0139" cy="61.0345" r="0.965517" fill="#969696"/>
<circle cx="83.4897" cy="59.8759" r="0.965517" fill="#969696"/>
<circle cx="85.9655" cy="56.9655" r="0.965517" fill="#969696"/>
<circle cx="11.9655" cy="61.9655" r="0.965517" fill="#969696"/>
<circle cx="9.96552" cy="59.9655" r="0.965517" fill="#969696"/>
<circle cx="6.96552" cy="58.9655" r="0.965517" fill="#969696"/>
<circle cx="3.96552" cy="59.9655" r="0.965517" fill="#969696"/>
<circle cx="11.9655" cy="75.9655" r="0.965517" fill="#969696"/>
<circle cx="13.9655" cy="73.9655" r="0.965517" fill="#969696"/>
<circle cx="14.9655" cy="70.9655" r="0.965517" fill="#969696"/>
<circle cx="14.9655" cy="67.9655" r="0.965517" fill="#969696"/>
<circle cx="13.9655" cy="64.9655" r="0.965517" fill="#969696"/>
<path d="M31.0064 46.021C30.397 45.4122 29.7378 44.8554 29.0355 44.3565L29.1233 44.2303C29.8334 44.7345 30.4999 45.2974 31.1157 45.9132L31.0064 46.021ZM28.1148 43.7545C27.7529 43.5358 27.3772 43.3295 27 43.1386L27.0677 43C27.4496 43.1894 27.8284 43.3973 28.1948 43.6159L28.1148 43.7545Z" fill="#A6A6A6"/>
<path opacity="0.2" d="M31.0064 46.021C30.397 45.4122 29.7378 44.8554 29.0355 44.3565L29.1233 44.2303C29.8334 44.7345 30.4999 45.2974 31.1157 45.9132L31.0064 46.021ZM28.1148 43.7545C27.7529 43.5358 27.3772 43.3295 27 43.1386L27.0677 43C27.4496 43.1894 27.8284 43.3973 28.1948 43.6159L28.1148 43.7545Z" fill="black"/>
<path d="M51.262 54.9864C54.039 52.3127 57.7541 50.8352 61.6088 50.8715C65.4635 50.9078 69.1501 52.4548 71.8763 55.1802C74.6025 57.9056 76.1507 61.5918 76.1881 65.4465C76.2255 69.3012 74.7491 73.0167 72.0763 75.7945L61.6722 86.2001L51.262 75.7899C48.5049 73.0303 46.9562 69.289 46.9562 65.3881C46.9562 61.4872 48.5049 57.7459 51.262 54.9864V54.9864ZM61.6707 72.2315C63.0223 72.2315 64.3435 71.8307 65.4673 71.0798C66.5911 70.3288 67.4669 69.2615 67.9841 68.0128C68.5012 66.7641 68.6365 65.39 68.3727 64.0644C68.1089 62.7388 67.4579 61.5212 66.5021 60.5656C65.5463 59.61 64.3285 58.9593 63.0029 58.6958C61.6772 58.4324 60.3032 58.5679 59.0546 59.0853C57.806 59.6028 56.7389 60.4789 55.9882 61.6028C55.2375 62.7268 54.837 64.0481 54.8373 65.3997C54.841 67.2096 55.5625 68.9441 56.8436 70.2226C58.1248 71.5012 59.8608 72.2192 61.6707 72.2192V72.2315Z" fill="#A6A6A6"/>
</svg>
